<?xml version="1.0" encoding="UTF-8" standalone="no"?>
<!-- Created with Inkscape (http://www.inkscape.org/) -->

<svg
   xmlns:dc="http://purl.org/dc/elements/1.1/"
   xmlns:cc="http://creativecommons.org/ns#"
   xmlns:rdf="http://www.w3.org/1999/02/22-rdf-syntax-ns#"
   xmlns:svg="http://www.w3.org/2000/svg"
   xmlns="http://www.w3.org/2000/svg"
   xmlns:sodipodi="http://sodipodi.sourceforge.net/DTD/sodipodi-0.dtd"
   xmlns:inkscape="http://www.inkscape.org/namespaces/inkscape"
   width="80"
   height="80"
   viewBox="0 0 21.166667 21.166667"
   version="1.1"
   id="svg947"
   inkscape:version="0.92.3 (2405546, 2018-03-11)"
   sodipodi:docname="areaestudante.svg">
  <defs
     id="defs941" />
  <sodipodi:namedview
     id="base"
     pagecolor="#ffffff"
     bordercolor="#666666"
     borderopacity="1.0"
     inkscape:pageopacity="0.0"
     inkscape:pageshadow="2"
     inkscape:zoom="3.959798"
     inkscape:cx="97.445782"
     inkscape:cy="35.27679"
     inkscape:document-units="px"
     inkscape:current-layer="layer1"
     showgrid="false"
     units="px"
     inkscape:pagecheckerboard="true"
     inkscape:window-width="1618"
     inkscape:window-height="1027"
     inkscape:window-x="54"
     inkscape:window-y="-8"
     inkscape:window-maximized="1"
     showguides="false" />
  <metadata
     id="metadata944">
    <rdf:RDF>
      <cc:Work
         rdf:about="">
        <dc:format>image/svg+xml</dc:format>
        <dc:type
           rdf:resource="http://purl.org/dc/dcmitype/StillImage" />
        <dc:title></dc:title>
      </cc:Work>
    </rdf:RDF>
  </metadata>
  <g
     inkscape:label="Camada 1"
     inkscape:groupmode="layer"
     id="layer1"
     transform="translate(0,-275.83333)">
    <path
       inkscape:connector-curvature="0"
       d="m 20.219567,284.35614 h -0.652023 v -0.32601 c 0,-0.53922 -0.438812,-0.97804 -0.978037,-0.97804 h -0.838828 l 1.210156,-3.32762 -1.78785,-2.08548 c 0.07204,-0.1591 0.112472,-0.33157 0.112472,-0.51087 0,-0.68854 -0.560088,-1.2483 -1.247974,-1.2483 -0.333509,0 -0.646808,0.12976 -0.882514,0.3658 l -0.80362,0.80328 -0.421533,-0.42153 -0.460982,0.46097 2.608097,2.6081 0.460981,-0.46097 -0.421533,-0.42155 0.649089,-0.64908 1.452384,1.69461 -1.160603,3.19264 h -0.749828 c -0.539224,0 -0.978036,0.43882 -0.978036,0.97804 v 0.32601 h -4.238157 v -1.95607 c 0,-0.53923 -0.438813,-0.97804 -0.978037,-0.97804 H 6.2010468 c -0.5392242,0 -0.9780362,0.43881 -0.9780362,0.97804 v 1.95607 H 0.00681597 v 1.95607 h 0.6520246 v 9.78036 H 2.6149132 v -9.78036 h 3.1972011 l 0.3683933,0.98163 c 0.013689,0.0365 0.02054,0.075 0.02054,0.11446 v 2.16407 H 4.8969987 v 0.32602 c 0,0.85381 0.6621309,1.54855 1.4983513,1.61669 l -1.4983513,4.19511 v 0.38242 h 0.6520248 v -0.26962 l 0.2983012,-0.83524 2.3097954,-1.42141 2.3097959,1.42141 0.298301,0.83524 v 0.26962 h 0.652024 v -0.38242 l -1.4983521,-4.19511 c 0.8362211,-0.0681 1.4983521,-0.76288 1.4983521,-1.61669 v -0.32602 h -1.304048 v -2.16407 c 0,-0.0394 0.0069,-0.0779 0.02054,-0.11446 l 0.368394,-0.98163 h 3.523212 v 9.78036 h 5.542206 v -9.78036 h 0.652024 z m -5.407236,-6.84626 0.80362,-0.80362 c 0.111166,-0.11089 0.264396,-0.17441 0.421534,-0.17441 0.328619,0 0.59595,0.26733 0.59595,0.59627 0,0.15909 -0.06194,0.30906 -0.174416,0.42154 l -0.80362,0.80329 z m 1.169079,6.52025 c 0,-0.17963 0.146053,-0.32602 0.326012,-0.32602 h 2.282085 c 0.179959,0 0.326012,0.14639 0.326012,0.32602 v 0.32601 H 15.98141 Z M 5.875035,282.40007 c 0,-0.17964 0.1460542,-0.32601 0.3260128,-0.32601 h 3.9121452 c 0.179958,0 0.326012,0.14637 0.326012,0.32601 v 1.95607 H 5.8750351 Z M 1.9628897,295.44055 H 1.3108665 v -9.12834 h 0.6520232 z m 7.2687668,-3.91215 0.1789808,0.50109 -1.2535171,0.77134 -1.2535166,-0.77134 0.1789804,-0.50109 z m -3.0338689,2.47802 0.4818454,-1.34936 0.8554561,0.5265 z m 2.5813637,-0.82286 0.8554558,-0.5265 0.4818459,1.34936 z m 1.0080299,-2.30718 H 6.5270593 c -0.4251197,0 -0.7876444,-0.27254 -0.9222875,-0.65203 h 5.1046972 c -0.134643,0.37949 -0.497169,0.65203 -0.9222878,0.65203 z M 9.523111,287.0653 c -0.04108,0.10991 -0.06194,0.2256 -0.06194,0.34297 v 2.16406 H 6.853072 v -2.16406 c 0,-0.11744 -0.020861,-0.23311 -0.061941,-0.34362 l -0.2826529,-0.75244 h 3.2969606 z m 9.392408,4.78912 h -0.652024 v 0.65201 h 0.652024 v 2.93412 h -4.238157 v -2.93412 h 2.934109 v -0.65201 h -2.934109 v -5.54221 h 4.238157 z m 0.652025,-6.19424 H 0.6588418 v -0.65202 H 19.567544 Z"
       id="path1481"
       style="fill:#008080;stroke-width:0.3260121" />
  </g>
  <style
     id="style1582"
     type="text/css">
	.st0{fill:none;stroke:#000000;stroke-width:2;stroke-linecap:round;stroke-linejoin:round;stroke-miterlimit:10;}
</style>
</svg>
