<?xml version="1.0" encoding="UTF-8" standalone="no"?>
<!-- Created with Inkscape (http://www.inkscape.org/) -->

<svg
   xmlns:dc="http://purl.org/dc/elements/1.1/"
   xmlns:cc="http://creativecommons.org/ns#"
   xmlns:rdf="http://www.w3.org/1999/02/22-rdf-syntax-ns#"
   xmlns:svg="http://www.w3.org/2000/svg"
   xmlns="http://www.w3.org/2000/svg"
   xmlns:sodipodi="http://sodipodi.sourceforge.net/DTD/sodipodi-0.dtd"
   xmlns:inkscape="http://www.inkscape.org/namespaces/inkscape"
   width="80"
   height="80"
   viewBox="0 0 21.166667 21.166667"
   version="1.1"
   id="svg947"
   inkscape:version="0.92.3 (2405546, 2018-03-11)"
   sodipodi:docname="cursos.svg">
  <defs
     id="defs941" />
  <sodipodi:namedview
     id="base"
     pagecolor="#ffffff"
     bordercolor="#666666"
     borderopacity="1.0"
     inkscape:pageopacity="0.0"
     inkscape:pageshadow="2"
     inkscape:zoom="5.6"
     inkscape:cx="36.938221"
     inkscape:cy="69.024685"
     inkscape:document-units="px"
     inkscape:current-layer="layer1"
     showgrid="false"
     units="px"
     inkscape:pagecheckerboard="true"
     inkscape:window-width="1618"
     inkscape:window-height="1027"
     inkscape:window-x="54"
     inkscape:window-y="-8"
     inkscape:window-maximized="1" />
  <metadata
     id="metadata944">
    <rdf:RDF>
      <cc:Work
         rdf:about="">
        <dc:format>image/svg+xml</dc:format>
        <dc:type
           rdf:resource="http://purl.org/dc/dcmitype/StillImage" />
        <dc:title></dc:title>
      </cc:Work>
    </rdf:RDF>
  </metadata>
  <g
     inkscape:label="Camada 1"
     inkscape:groupmode="layer"
     id="layer1"
     transform="translate(0,-275.83333)">
    <path
       inkscape:connector-curvature="0"
       d="m 16.666377,286.10805 -5.737863,1.61837 a 1.1813248,1.1813248 0 0 1 -0.328868,0.0434 1.1510344,1.1510344 0 0 1 -0.32454,-0.0434 l -5.7551707,-1.61837 v 3.69542 0 c 0,0.86544 2.7304599,1.61839 6.0883657,1.61839 3.357905,0 6.058076,-0.72697 6.058076,-1.6227 0,0 0,-0.0303 0,-0.0434 z"
       id="path898"
       style="stroke-width:0.43271974;fill:#ffffff" />
    <path
       inkscape:connector-curvature="0"
       d="m 20.686343,283.2521 -9.891973,-2.77805 a 0.67936993,0.67936993 0 0 0 -0.372139,0 l -9.89630001,2.77805 a 0.37213894,0.37213894 0 0 0 -0.30290324,0.32021 c 0,0.13853 0.12115606,0.25963 0.30290324,0.31156 l 9.89630001,2.77807 a 0.66638834,0.66638834 0 0 0 0.181742,0.0303 0.61013478,0.61013478 0 0 0 0.177415,-0.0303 l 8.264947,-2.3237 v 6.39559 a 0.65773394,0.65773394 0 0 0 -0.302904,0.18607 0.94332895,0.94332895 0 0 0 -0.177414,0.75293 4.7599167,4.7599167 0 0 0 0.597153,1.33278 0.21635985,0.21635985 0 0 0 0.173087,0.0952 0.19905107,0.19905107 0 0 0 0.164434,-0.0952 c 0,0 0.142794,-0.238 0.285595,-0.50197 a 2.4102487,2.4102487 0 0 0 0.341849,-0.81783 0.94765614,0.94765614 0 0 0 -0.203378,-0.74861 0.62311637,0.62311637 0 0 0 -0.285595,-0.19472 v -6.56436 l 1.055836,-0.29425 c 0.181742,-0.052 0.302903,-0.17308 0.302903,-0.31156 a 0.37213894,0.37213894 0 0 0 -0.311558,-0.32021 z"
       id="path900"
       style="stroke-width:0.43271974;fill:#ffffff" />
  </g>
</svg>
