<?xml version="1.0" encoding="UTF-8" standalone="no"?>
<!-- Created with Inkscape (http://www.inkscape.org/) -->

<svg
   xmlns:dc="http://purl.org/dc/elements/1.1/"
   xmlns:cc="http://creativecommons.org/ns#"
   xmlns:rdf="http://www.w3.org/1999/02/22-rdf-syntax-ns#"
   xmlns:svg="http://www.w3.org/2000/svg"
   xmlns="http://www.w3.org/2000/svg"
   xmlns:sodipodi="http://sodipodi.sourceforge.net/DTD/sodipodi-0.dtd"
   xmlns:inkscape="http://www.inkscape.org/namespaces/inkscape"
   width="80"
   height="80"
   viewBox="0 0 21.166667 21.166667"
   version="1.1"
   id="svg947"
   inkscape:version="0.92.3 (2405546, 2018-03-11)"
   sodipodi:docname="ferramentas.svg">
  <defs
     id="defs941" />
  <sodipodi:namedview
     id="base"
     pagecolor="#ffffff"
     bordercolor="#666666"
     borderopacity="1.0"
     inkscape:pageopacity="0.0"
     inkscape:pageshadow="2"
     inkscape:zoom="2.8"
     inkscape:cx="28.511968"
     inkscape:cy="125.71287"
     inkscape:document-units="px"
     inkscape:current-layer="layer1"
     showgrid="false"
     units="px"
     inkscape:pagecheckerboard="true"
     inkscape:window-width="1618"
     inkscape:window-height="1027"
     inkscape:window-x="54"
     inkscape:window-y="-8"
     inkscape:window-maximized="1"
     showguides="false" />
  <metadata
     id="metadata944">
    <rdf:RDF>
      <cc:Work
         rdf:about="">
        <dc:format>image/svg+xml</dc:format>
        <dc:type
           rdf:resource="http://purl.org/dc/dcmitype/StillImage" />
        <dc:title></dc:title>
      </cc:Work>
    </rdf:RDF>
  </metadata>
  <g
     inkscape:label="Camada 1"
     inkscape:groupmode="layer"
     id="layer1"
     transform="translate(0,-275.83333)">
    <g
       id="g1439"
       transform="matrix(0.87099053,0,0,0.87099053,-0.03751711,275.6726)"
       style="fill:#008080">
      <path
         inkscape:connector-curvature="0"
         d="m 23.286,15.711 -3.258,-3.26 C 16.766,9.189 13.505,5.928 10.24,2.67 10.203,2.605 10.147,2.55 10.08,2.515 9.979,2.426 9.841,2.33 9.675,2.273 8.475,1.868 7.274,1.465 6.073,1.064 L 4.688,0.6 C 4.439,0.518 4.098,0.514 3.875,0.729 3.841,0.762 3.83,0.797 3.805,0.83 3.801,0.834 3.795,0.835 3.791,0.839 3.778,0.854 3.775,0.874 3.764,0.89 3.741,0.931 3.714,0.97 3.7,1.01 3.698,1.019 3.697,1.027 3.695,1.036 3.632,1.259 3.694,1.47 3.727,1.567 L 4.231,3.074 C 4.283,3.229 4.335,3.383 4.386,3.537 L 4.399,3.58 C 4.4,3.582 4.402,3.584 4.403,3.586 4.731,4.569 5.06,5.554 5.391,6.534 5.447,6.702 5.54,6.86 5.687,7.01 5.698,7.025 5.71,7.04 5.724,7.054 l 11.713,11.713 c 0.004,0.004 0.009,0.008 0.013,0.012 l 1.412,1.413 c 0.394,0.393 0.878,0.595 1.439,0.6 0.002,0 0.003,0 0.004,0 0.568,0 1.056,-0.2 1.447,-0.595 l 1.531,-1.533 c 0.856,-0.857 0.856,-2.099 0.003,-2.953 z M 9.872,3.434 21.041,14.597 19.663,15.974 8.506,4.816 C 8.999,4.316 9.483,3.826 9.872,3.434 Z M 5.242,3.573 6.697,2.118 C 7.536,2.399 8.376,2.68 9.214,2.962 8.765,3.414 8.213,3.973 7.661,4.533 7.66,4.534 7.659,4.534 7.659,4.535 7.658,4.536 7.657,4.537 7.657,4.538 c 0,0 -0.001,10e-4 -0.002,0.002 C 7.1,5.101 6.545,5.664 6.094,6.117 5.808,5.269 5.525,4.421 5.242,3.573 Z M 6.576,6.768 C 6.966,6.375 7.45,5.885 7.943,5.385 L 19.097,16.54 17.72,17.917 Z m 16.141,11.331 -1.533,1.534 c -0.238,0.24 -0.525,0.357 -0.877,0.357 -0.354,-0.003 -0.634,-0.119 -0.879,-0.365 l -1.143,-1.142 1.658,-1.658 c 10e-4,-10e-4 0.002,-10e-4 0.003,-0.002 10e-4,-0.001 10e-4,-0.002 0.002,-0.003 l 1.658,-1.658 1.112,1.112 c 0.536,0.538 0.536,1.287 -0.001,1.825 z"
         id="path1433"
         style="fill:#008080" />
      <path
         inkscape:connector-curvature="0"
         d="M 0.758,3.668 C 0.642,3.552 0.47,3.519 0.322,3.582 0.172,3.643 0.075,3.789 0.075,3.951 v 18.627 c 0.004,0.571 0.307,0.873 0.887,0.873 L 2.35,23.45 c 10e-4,0 0.002,0.001 0.004,0.001 0.002,0 0.002,-0.001 0.004,-0.001 h 0.441 1.26 c 10e-4,0 0.003,0.001 0.004,0.001 0.001,0 0.003,-0.001 0.004,-0.001 l 11.849,0.002 2.869,-0.001 0.134,-0.001 0.663,0.001 c 0.162,0 0.308,-0.098 0.369,-0.247 0.063,-0.149 0.028,-0.322 -0.086,-0.437 z m 15.155,18.984 h -1.069 v -2.261 c 0,-0.221 -0.18,-0.4 -0.4,-0.4 -0.22,0 -0.4,0.18 -0.4,0.4 v 2.26 h -0.912 v -1.347 c 0,-0.221 -0.18,-0.4 -0.4,-0.4 -0.22,0 -0.4,0.18 -0.4,0.4 v 1.347 h -0.926 v -2.23 c 0,-0.221 -0.18,-0.4 -0.4,-0.4 -0.22,0 -0.4,0.18 -0.4,0.4 v 2.23 H 9.645 v -1.316 c 0,-0.221 -0.18,-0.4 -0.4,-0.4 -0.22,0 -0.4,0.18 -0.4,0.4 v 1.316 H 7.942 v -2.229 c 0,-0.221 -0.18,-0.4 -0.4,-0.4 -0.22,0 -0.4,0.18 -0.4,0.4 v 2.229 H 6.184 v -1.317 c 0,-0.221 -0.18,-0.4 -0.4,-0.4 -0.22,0 -0.4,0.18 -0.4,0.4 v 1.317 H 4.466 v -2.194 c 0,-0.221 -0.18,-0.4 -0.4,-0.4 -0.22,0 -0.4,0.18 -0.4,0.4 V 22.65 H 2.803 2.753 v -1.281 c 0,-0.221 -0.18,-0.4 -0.4,-0.4 -0.22,0 -0.4,0.18 -0.4,0.4 V 22.65 H 0.952 c -0.032,0 -0.059,0 -0.073,0 C 0.877,22.632 0.876,22.608 0.876,22.576 V 4.917 L 18.614,22.65 Z"
         id="path1435"
         style="fill:#008080" />
      <path
         inkscape:connector-curvature="0"
         d="M 4.261,18.498 H 8.7 9.641 c 0.162,0 0.308,-0.098 0.369,-0.247 0.063,-0.149 0.028,-0.322 -0.086,-0.437 L 4.401,12.292 C 4.285,12.177 4.114,12.145 3.964,12.206 3.814,12.267 3.717,12.413 3.717,12.575 v 5.389 c 0.005,0.324 0.217,0.534 0.544,0.534 z m 0.258,-4.957 4.157,4.157 -3.77,-0.001 H 4.519 Z"
         id="path1437"
         style="fill:#008080" />
    </g>
  </g>
  <style
     id="style1582"
     type="text/css">
	.st0{fill:none;stroke:#000000;stroke-width:2;stroke-linecap:round;stroke-linejoin:round;stroke-miterlimit:10;}
</style>
</svg>
