<?xml version="1.0" encoding="utf-8"?>
<!-- Generator: Adobe Illustrator 14.0.0, SVG Export Plug-In  -->
<!DOCTYPE svg PUBLIC "-//W3C//DTD SVG 1.1//EN" "http://www.w3.org/Graphics/SVG/1.1/DTD/svg11.dtd" [
	<!ENTITY ns_flows "http://ns.adobe.com/Flows/1.0/">
]>
<svg version="1.1"
	 xmlns="http://www.w3.org/2000/svg" xmlns:xlink="http://www.w3.org/1999/xlink" xmlns:a="http://ns.adobe.com/AdobeSVGViewerExtensions/3.0/"
	 x="0px" y="0px" width="320px" height="42px" viewBox="0.001 -0.199 320 42" enable-background="new 0.001 -0.199 320 42"
	 xml:space="preserve">
<defs>
</defs>
<path fill="#FFFFFF" d="M29.614,28.744c0,0.477-0.395,0.869-0.865,0.869h-6.872c-0.474,0-0.869-0.393-0.869-0.869v-6.873
	c0-0.473,0.396-0.869,0.869-0.869h6.872c0.471,0,0.865,0.396,0.865,0.869V28.744z"/>
<path fill="#FFFFFF" d="M19.35,8.21c0,0.473-0.396,0.869-0.869,0.869h-6.87c-0.474,0-0.869-0.396-0.869-0.869V1.261
	c0-0.474,0.396-0.868,0.869-0.868h6.87c0.473,0,0.869,0.395,0.869,0.868V8.21z"/>
<path fill="#FFFFFF" d="M29.614,8.21c0,0.473-0.395,0.869-0.865,0.869h-6.872c-0.474,0-0.869-0.396-0.869-0.869V1.261
	c0-0.474,0.396-0.868,0.869-0.868h6.872c0.471,0,0.865,0.395,0.865,0.868V8.21z"/>
<path fill="#FFFFFF" d="M9.084,18.475c0,0.476-0.396,0.87-0.869,0.87H1.344c-0.473,0-0.868-0.395-0.868-0.87v-6.947
	c0-0.476,0.396-0.87,0.868-0.87h6.871c0.473,0,0.869,0.395,0.869,0.87V18.475z"/>
<path fill="#FFFFFF" d="M19.35,18.475c0,0.476-0.396,0.87-0.869,0.87h-6.87c-0.474,0-0.869-0.395-0.869-0.87v-6.947
	c0-0.476,0.396-0.87,0.869-0.87h6.87c0.473,0,0.869,0.395,0.869,0.87V18.475z"/>
<path fill="#FFFFFF" d="M9.084,28.744c0,0.477-0.396,0.869-0.869,0.869H1.344c-0.473,0-0.868-0.393-0.868-0.869v-6.873
	c0-0.473,0.396-0.869,0.868-0.869h6.871c0.473,0,0.869,0.396,0.869,0.869V28.744z"/>
<path fill="#FFFFFF" d="M19.35,28.744c0,0.477-0.396,0.869-0.869,0.869h-6.87c-0.474,0-0.869-0.393-0.869-0.869v-6.873
	c0-0.473,0.396-0.869,0.869-0.869h6.87c0.473,0,0.869,0.396,0.869,0.869V28.744z"/>
<path fill="#FFFFFF" d="M9.084,39.012c0,0.475-0.396,0.869-0.869,0.869H1.344c-0.473,0-0.868-0.395-0.868-0.869v-6.869
	c0-0.475,0.396-0.873,0.868-0.873h6.871c0.473,0,0.869,0.398,0.869,0.873V39.012z"/>
<path fill="#FFFFFF" d="M19.35,39.012c0,0.475-0.396,0.869-0.869,0.869h-6.87c-0.474,0-0.869-0.395-0.869-0.869v-6.869
	c0-0.475,0.396-0.873,0.869-0.873h6.87c0.473,0,0.869,0.398,0.869,0.873V39.012z"/>
<path fill="#FFFFFF" d="M9.478,4.735c0,2.604-2.133,4.738-4.737,4.738C2.134,9.474,0,7.339,0,4.735C0,2.13,2.134,0,4.74,0
	C7.425,0,9.478,2.13,9.478,4.735"/>
<path fill="#FFFFFF" d="M35.631,29.85v-8.525h1.813v8.525H35.631z"/>
<path fill="#FFFFFF" d="M47.16,29.85h-2.299l-3.715-6.447h-0.052c0.072,1.139,0.111,1.953,0.111,2.436v4.012h-1.618v-8.525h2.283
	l3.706,6.387h0.042c-0.06-1.107-0.088-1.891-0.088-2.35v-4.037h1.629V29.85z"/>
<path fill="#FFFFFF" d="M54.348,27.484c0,0.77-0.278,1.375-0.832,1.818c-0.555,0.441-1.324,0.664-2.315,0.664
	c-0.908,0-1.716-0.172-2.417-0.512v-1.68c0.578,0.256,1.065,0.438,1.461,0.543c0.4,0.104,0.766,0.154,1.098,0.154
	c0.395,0,0.702-0.072,0.912-0.225c0.215-0.152,0.32-0.377,0.32-0.676c0-0.168-0.049-0.316-0.143-0.447
	c-0.092-0.129-0.23-0.256-0.411-0.377s-0.549-0.313-1.104-0.576c-0.524-0.244-0.915-0.477-1.177-0.705
	c-0.259-0.229-0.468-0.486-0.624-0.787c-0.155-0.299-0.229-0.65-0.229-1.051c0-0.754,0.254-1.344,0.766-1.777
	c0.512-0.432,1.22-0.65,2.121-0.65c0.442,0,0.868,0.055,1.271,0.158c0.401,0.105,0.825,0.254,1.266,0.443l-0.587,1.408
	c-0.452-0.188-0.833-0.316-1.129-0.391c-0.298-0.072-0.591-0.113-0.878-0.113c-0.344,0-0.606,0.082-0.788,0.242
	c-0.183,0.158-0.275,0.367-0.275,0.623c0,0.16,0.037,0.297,0.112,0.416c0.071,0.119,0.189,0.232,0.354,0.346
	c0.161,0.111,0.544,0.309,1.146,0.596c0.798,0.383,1.345,0.766,1.642,1.146C54.201,26.459,54.348,26.928,54.348,27.484z"/>
<path fill="#FFFFFF" d="M59.256,29.85h-1.81v-7.02h-2.319v-1.506h6.448v1.506h-2.319V29.85z"/>
<path fill="#FFFFFF" d="M62.887,29.85v-8.525h1.81v8.525H62.887z"/>
<path fill="#FFFFFF" d="M70.139,29.85h-1.812v-7.02h-2.318v-1.506h6.447v1.506h-2.317V29.85z"/>
<path fill="#FFFFFF" d="M80.788,21.324v5.518c0,0.633-0.143,1.184-0.424,1.656c-0.282,0.475-0.691,0.838-1.223,1.092
	c-0.533,0.252-1.165,0.377-1.893,0.377c-1.097,0-1.949-0.281-2.557-0.844c-0.607-0.561-0.91-1.326-0.91-2.301v-5.498h1.803v5.223
	c0,0.656,0.133,1.137,0.398,1.445c0.265,0.307,0.703,0.461,1.313,0.461c0.592,0,1.019-0.158,1.285-0.465
	c0.268-0.309,0.4-0.795,0.4-1.455v-5.209H80.788z"/>
<path fill="#FFFFFF" d="M86.15,29.85h-1.81v-7.02h-2.319v-1.506h6.447v1.506H86.15V29.85z"/>
<path fill="#FFFFFF" d="M97.564,25.576c0,1.412-0.35,2.498-1.049,3.254c-0.701,0.76-1.708,1.137-3.013,1.137
	c-1.308,0-2.313-0.377-3.016-1.137c-0.699-0.756-1.05-1.846-1.05-3.266c0-1.416,0.354-2.5,1.053-3.25
	c0.704-0.748,1.713-1.123,3.023-1.123c1.312,0,2.316,0.377,3.01,1.131C97.219,23.078,97.564,24.162,97.564,25.576z M91.335,25.576
	c0,0.953,0.181,1.672,0.544,2.154c0.363,0.48,0.906,0.723,1.624,0.723c1.443,0,2.167-0.959,2.167-2.877s-0.719-2.879-2.156-2.879
	c-0.72,0-1.264,0.242-1.63,0.727C91.519,23.906,91.335,24.627,91.335,25.576z"/>
<path fill="#FFFFFF" d="M104.224,29.85h-1.783v-8.525h4.892v1.484h-3.108v2.195h2.893v1.477h-2.893V29.85z"/>
<path fill="#FFFFFF" d="M113.957,29.85h-4.914v-8.525h4.914v1.484h-3.107v1.871h2.893v1.48h-2.893v2.197h3.107V29.85z"/>
<path fill="#FFFFFF" d="M122.819,25.506c0,1.404-0.4,2.48-1.201,3.225c-0.797,0.748-1.956,1.119-3.466,1.119h-2.414v-8.525h2.679
	c1.397,0,2.477,0.369,3.248,1.107C122.436,23.164,122.819,24.189,122.819,25.506z M120.942,25.553c0-1.826-0.812-2.744-2.431-2.744
	h-0.964v5.549h0.777C120.067,28.357,120.942,27.422,120.942,25.553z"/>
<path fill="#FFFFFF" d="M129.503,29.85h-4.914v-8.525h4.914v1.484H126.4v1.871h2.887v1.48H126.4v2.197h3.103V29.85z"/>
<path fill="#FFFFFF" d="M133.096,26.58v3.27h-1.811v-8.525h2.488c1.16,0,2.018,0.211,2.576,0.635
	c0.553,0.424,0.833,1.063,0.833,1.922c0,0.5-0.14,0.945-0.412,1.338c-0.278,0.391-0.667,0.695-1.175,0.918
	c1.282,1.916,2.12,3.154,2.508,3.713h-2.009l-2.036-3.27H133.096z M133.096,25.109h0.581c0.578,0,0.997-0.094,1.271-0.285
	c0.271-0.188,0.409-0.488,0.409-0.895s-0.14-0.693-0.422-0.865c-0.277-0.17-0.706-0.256-1.291-0.256h-0.549V25.109z"/>
<path fill="#FFFFFF" d="M144.485,29.85l-0.62-2.029h-3.112l-0.62,2.029h-1.949l3.013-8.557h2.214l3.023,8.557H144.485z
	 M143.436,26.307c-0.574-1.838-0.898-2.879-0.969-3.119c-0.071-0.242-0.123-0.432-0.157-0.572c-0.124,0.498-0.495,1.729-1.099,3.691
	H143.436z"/>
<path fill="#FFFFFF" d="M147.486,29.85v-8.525h1.809v7.033h3.464v1.492H147.486z"/>
<path fill="#FFFFFF" d="M39.409,39.727h-3.717v-6.654h3.717v0.688H36.47v2.146h2.761v0.68H36.47v2.449h2.939V39.727z"/>
<path fill="#FFFFFF" d="M43.992,38.365c0,0.465-0.174,0.824-0.519,1.076c-0.346,0.25-0.832,0.379-1.46,0.379
	c-0.66,0-1.178-0.107-1.55-0.316v-0.699c0.241,0.119,0.5,0.217,0.772,0.285c0.275,0.068,0.542,0.105,0.796,0.105
	c0.395,0,0.7-0.064,0.912-0.189c0.214-0.127,0.319-0.318,0.319-0.574c0-0.197-0.085-0.363-0.253-0.5
	c-0.168-0.139-0.499-0.303-0.986-0.49c-0.463-0.174-0.795-0.324-0.992-0.455c-0.195-0.127-0.341-0.273-0.438-0.438
	c-0.095-0.162-0.144-0.361-0.144-0.588c0-0.406,0.167-0.727,0.497-0.961s0.786-0.354,1.361-0.354c0.54,0,1.066,0.111,1.578,0.328
	L43.62,35.59c-0.503-0.209-0.955-0.309-1.363-0.309c-0.356,0-0.629,0.055-0.813,0.168c-0.183,0.111-0.275,0.266-0.275,0.463
	c0,0.135,0.038,0.248,0.104,0.342c0.069,0.092,0.18,0.184,0.332,0.268c0.15,0.084,0.444,0.207,0.875,0.369
	c0.593,0.215,0.994,0.432,1.201,0.65S43.992,38.033,43.992,38.365z"/>
<path fill="#FFFFFF" d="M47.549,39.82c-0.326,0-0.624-0.063-0.893-0.184c-0.268-0.119-0.493-0.305-0.676-0.551h-0.055
	c0.036,0.289,0.055,0.568,0.055,0.826v2.051h-0.756v-7.227h0.615l0.105,0.686h0.035c0.194-0.273,0.42-0.473,0.679-0.594
	c0.256-0.121,0.555-0.182,0.89-0.182c0.662,0,1.172,0.229,1.534,0.68c0.358,0.451,0.54,1.084,0.54,1.9
	c0,0.818-0.184,1.457-0.551,1.91C48.707,39.592,48.195,39.82,47.549,39.82z M47.439,35.289c-0.513,0-0.883,0.143-1.107,0.422
	c-0.229,0.283-0.345,0.732-0.352,1.35v0.166c0,0.701,0.114,1.205,0.352,1.504c0.231,0.305,0.608,0.455,1.125,0.455
	c0.432,0,0.771-0.174,1.016-0.523c0.242-0.35,0.365-0.83,0.365-1.443c0-0.623-0.123-1.1-0.365-1.432
	C48.228,35.457,47.882,35.289,47.439,35.289z"/>
<path fill="#FFFFFF" d="M50.91,33.965c0.146-0.188,0.306-0.416,0.474-0.682c0.169-0.27,0.301-0.498,0.401-0.697h0.92v0.096
	c-0.137,0.199-0.334,0.441-0.6,0.727c-0.265,0.289-0.493,0.512-0.686,0.67h-0.51V33.965z M51.699,39.727h-0.755v-4.99h0.755V39.727z
	"/>
<path fill="#FFFFFF" d="M55.584,34.646c0.223,0,0.423,0.02,0.597,0.055l-0.104,0.701c-0.205-0.047-0.39-0.066-0.548-0.066
	c-0.401,0-0.748,0.162-1.036,0.49c-0.285,0.328-0.433,0.734-0.433,1.225v2.676h-0.755v-4.99h0.625l0.087,0.924h0.036
	c0.186-0.322,0.409-0.572,0.669-0.75C54.982,34.736,55.273,34.646,55.584,34.646z"/>
<path fill="#FFFFFF" d="M57.05,33.387c0-0.172,0.043-0.299,0.128-0.381c0.086-0.078,0.193-0.117,0.32-0.117
	c0.12,0,0.226,0.039,0.316,0.119c0.085,0.084,0.13,0.209,0.13,0.379s-0.045,0.295-0.13,0.381c-0.091,0.084-0.196,0.123-0.316,0.123
	c-0.127,0-0.234-0.039-0.32-0.123C57.093,33.682,57.05,33.557,57.05,33.387z M57.872,39.727h-0.756v-4.99h0.756V39.727z"/>
<path fill="#FFFFFF" d="M61.09,39.195c0.135,0,0.263-0.012,0.388-0.029c0.124-0.02,0.224-0.043,0.295-0.063v0.576
	c-0.08,0.041-0.203,0.072-0.363,0.1c-0.158,0.025-0.302,0.041-0.431,0.041c-0.964,0-1.449-0.512-1.449-1.527v-2.967h-0.713v-0.365
	l0.713-0.314l0.321-1.063h0.438v1.152h1.446v0.59h-1.446v2.934c0,0.303,0.071,0.531,0.215,0.693
	C60.645,39.113,60.84,39.195,61.09,39.195z"/>
<path fill="#FFFFFF" d="M67.086,37.227c0,0.813-0.208,1.451-0.617,1.904c-0.409,0.459-0.978,0.689-1.7,0.689
	c-0.446,0-0.844-0.107-1.189-0.316c-0.347-0.209-0.612-0.51-0.802-0.9c-0.189-0.395-0.283-0.852-0.283-1.377
	c0-0.813,0.202-1.445,0.61-1.9c0.407-0.451,0.973-0.68,1.696-0.68c0.697,0,1.252,0.234,1.666,0.697
	C66.878,35.807,67.086,36.436,67.086,37.227z M63.278,37.227c0,0.639,0.128,1.123,0.382,1.457c0.257,0.334,0.629,0.502,1.127,0.502
	c0.494,0,0.871-0.166,1.127-0.498c0.257-0.332,0.385-0.82,0.385-1.461c0-0.631-0.128-1.115-0.385-1.445
	c-0.256-0.326-0.635-0.492-1.134-0.492c-0.498,0-0.873,0.16-1.125,0.486C63.405,36.1,63.278,36.586,63.278,37.227z"/>
<path fill="#FFFFFF" d="M74.71,37.957c0,0.584-0.213,1.041-0.639,1.369c-0.425,0.328-1.003,0.494-1.731,0.494
	c-0.79,0-1.398-0.102-1.823-0.309v-0.746c0.271,0.117,0.57,0.207,0.893,0.273s0.641,0.1,0.956,0.1c0.519,0,0.906-0.096,1.17-0.293
	c0.26-0.195,0.39-0.469,0.39-0.818c0-0.229-0.044-0.418-0.138-0.566c-0.092-0.146-0.249-0.283-0.466-0.408
	c-0.218-0.123-0.549-0.264-0.993-0.424c-0.617-0.219-1.061-0.482-1.326-0.785s-0.4-0.699-0.4-1.186c0-0.514,0.193-0.924,0.579-1.225
	c0.387-0.303,0.896-0.457,1.532-0.457c0.662,0,1.272,0.121,1.828,0.365l-0.242,0.672c-0.551-0.23-1.082-0.344-1.606-0.344
	c-0.407,0-0.729,0.086-0.96,0.262c-0.23,0.178-0.346,0.42-0.346,0.734c0,0.229,0.042,0.42,0.128,0.566
	c0.085,0.148,0.228,0.281,0.431,0.404c0.204,0.123,0.511,0.258,0.926,0.406c0.701,0.25,1.182,0.516,1.444,0.803
	C74.579,37.131,74.71,37.5,74.71,37.957z"/>
<path fill="#FFFFFF" d="M79.031,39.727l-0.15-0.711h-0.036c-0.25,0.313-0.5,0.525-0.747,0.635c-0.246,0.111-0.556,0.17-0.928,0.17
	c-0.495,0-0.882-0.131-1.165-0.383c-0.278-0.258-0.42-0.619-0.42-1.09c0-1.008,0.808-1.537,2.42-1.586l0.848-0.025v-0.311
	c0-0.391-0.086-0.678-0.253-0.865c-0.172-0.188-0.439-0.279-0.809-0.279c-0.417,0-0.887,0.127-1.414,0.379l-0.232-0.576
	c0.248-0.135,0.518-0.24,0.809-0.314c0.296-0.076,0.589-0.111,0.883-0.111c0.597,0,1.035,0.129,1.324,0.393
	c0.285,0.268,0.431,0.688,0.431,1.27v3.406H79.031z M77.321,39.195c0.472,0,0.839-0.129,1.106-0.389
	c0.274-0.258,0.407-0.621,0.407-1.084V37.27l-0.759,0.035c-0.6,0.02-1.036,0.113-1.3,0.279c-0.267,0.166-0.399,0.422-0.399,0.773
	c0,0.271,0.082,0.48,0.248,0.623C76.792,39.123,77.022,39.195,77.321,39.195z"/>
<path fill="#FFFFFF" d="M84.565,39.727v-3.229c0-0.404-0.091-0.709-0.276-0.908c-0.187-0.201-0.479-0.301-0.873-0.301
	c-0.521,0-0.903,0.143-1.147,0.422c-0.242,0.283-0.364,0.748-0.364,1.396v2.619H81.15v-4.99h0.613l0.122,0.686h0.037
	c0.154-0.244,0.374-0.438,0.652-0.572s0.59-0.203,0.933-0.203c0.603,0,1.054,0.146,1.359,0.436c0.304,0.289,0.454,0.752,0.454,1.391
	v3.254H84.565z"/>
<path fill="#FFFFFF" d="M88.489,39.195c0.136,0,0.265-0.012,0.392-0.029c0.121-0.02,0.22-0.043,0.293-0.063v0.576
	c-0.081,0.041-0.2,0.072-0.36,0.1c-0.16,0.025-0.303,0.041-0.432,0.041c-0.967,0-1.447-0.512-1.447-1.527v-2.967h-0.719v-0.365
	l0.719-0.314l0.316-1.063h0.437v1.152h1.449v0.59h-1.449v2.934c0,0.303,0.072,0.531,0.215,0.693
	C88.045,39.113,88.241,39.195,88.489,39.195z"/>
<path fill="#FFFFFF" d="M94.482,37.227c0,0.813-0.203,1.451-0.612,1.904c-0.412,0.459-0.979,0.689-1.701,0.689
	c-0.445,0-0.843-0.107-1.19-0.316c-0.345-0.209-0.614-0.51-0.801-0.9c-0.189-0.395-0.282-0.852-0.282-1.377
	c0-0.813,0.202-1.445,0.609-1.9c0.409-0.451,0.972-0.68,1.694-0.68c0.702,0,1.258,0.234,1.669,0.697S94.482,36.436,94.482,37.227z
	 M90.678,37.227c0,0.639,0.129,1.123,0.383,1.457c0.258,0.334,0.633,0.502,1.127,0.502s0.871-0.166,1.127-0.498
	c0.261-0.332,0.389-0.82,0.389-1.461c0-0.631-0.128-1.115-0.389-1.445c-0.256-0.326-0.634-0.492-1.138-0.492
	c-0.493,0-0.869,0.16-1.119,0.486C90.807,36.1,90.678,36.586,90.678,37.227z"/>
<path fill="#FFFFFF" d="M177.011,23.752c-0.699,0-1.254,0.234-1.656,0.699c-0.408,0.467-0.611,1.107-0.611,1.916
	c0,0.834,0.197,1.479,0.588,1.932c0.393,0.455,0.949,0.682,1.67,0.682c0.449,0,0.951-0.08,1.523-0.238v0.648
	c-0.443,0.164-0.986,0.246-1.635,0.246c-0.938,0-1.664-0.281-2.174-0.852s-0.766-1.377-0.766-2.424c0-0.66,0.125-1.232,0.369-1.727
	c0.246-0.494,0.604-0.877,1.064-1.141c0.465-0.27,1.008-0.404,1.635-0.404c0.672,0,1.254,0.123,1.752,0.367l-0.314,0.637
	C177.976,23.865,177.494,23.752,177.011,23.752z"/>
<path fill="#FFFFFF" d="M181.824,29.637c-0.709,0-1.266-0.211-1.674-0.643c-0.406-0.432-0.613-1.025-0.613-1.791
	c0-0.77,0.191-1.383,0.572-1.832c0.377-0.455,0.889-0.682,1.525-0.682c0.598,0,1.07,0.197,1.422,0.592
	c0.346,0.393,0.52,0.914,0.52,1.557v0.459h-3.287c0.016,0.559,0.154,0.982,0.424,1.273s0.648,0.438,1.135,0.438
	c0.518,0,1.023-0.107,1.523-0.324v0.645c-0.254,0.111-0.494,0.189-0.727,0.238C182.419,29.613,182.144,29.637,181.824,29.637z
	 M181.625,25.297c-0.383,0-0.689,0.123-0.916,0.373c-0.229,0.252-0.365,0.598-0.402,1.037h2.498c0-0.455-0.104-0.805-0.307-1.045
	C182.292,25.418,182.003,25.297,181.625,25.297z"/>
<path fill="#FFFFFF" d="M188.074,29.553v-3.09c0-0.387-0.084-0.678-0.262-0.871c-0.18-0.193-0.457-0.287-0.832-0.287
	c-0.502,0-0.865,0.135-1.1,0.404c-0.23,0.27-0.35,0.717-0.35,1.338v2.506h-0.723v-4.777h0.59l0.117,0.654h0.037
	c0.146-0.234,0.355-0.418,0.621-0.545c0.268-0.129,0.566-0.195,0.895-0.195c0.574,0,1.006,0.141,1.297,0.418
	c0.291,0.275,0.438,0.719,0.438,1.332v3.113H188.074z"/>
<path fill="#FFFFFF" d="M191.83,29.043c0.125,0,0.25-0.01,0.371-0.029c0.117-0.018,0.213-0.037,0.281-0.059v0.557
	c-0.078,0.035-0.191,0.066-0.346,0.092c-0.154,0.021-0.289,0.033-0.412,0.033c-0.924,0-1.385-0.484-1.385-1.457v-2.84h-0.688v-0.352
	l0.688-0.299l0.303-1.018h0.422v1.104h1.383v0.564h-1.383v2.811c0,0.287,0.066,0.508,0.203,0.66
	C191.402,28.965,191.589,29.043,191.83,29.043z"/>
<path fill="#FFFFFF" d="M195.617,24.689c0.209,0,0.398,0.018,0.566,0.053l-0.098,0.674c-0.197-0.045-0.371-0.068-0.523-0.068
	c-0.385,0-0.717,0.156-0.992,0.471c-0.275,0.313-0.412,0.705-0.412,1.172v2.563h-0.721v-4.777h0.596l0.084,0.887h0.033
	c0.182-0.313,0.393-0.553,0.641-0.721C195.042,24.775,195.318,24.689,195.617,24.689z"/>
<path fill="#FFFFFF" d="M201.203,27.162c0,0.775-0.197,1.383-0.588,1.82c-0.395,0.438-0.936,0.654-1.627,0.654
	c-0.428,0-0.807-0.098-1.137-0.299c-0.332-0.197-0.588-0.488-0.768-0.861c-0.18-0.377-0.27-0.813-0.27-1.314
	c0-0.779,0.195-1.385,0.584-1.818c0.389-0.438,0.93-0.654,1.619-0.654c0.668,0,1.199,0.223,1.594,0.666
	C201.003,25.803,201.203,26.402,201.203,27.162z M197.564,27.162c0,0.607,0.123,1.074,0.365,1.393
	c0.244,0.318,0.602,0.479,1.076,0.479s0.834-0.16,1.076-0.479c0.25-0.316,0.371-0.783,0.371-1.393s-0.121-1.068-0.371-1.383
	c-0.242-0.316-0.605-0.475-1.084-0.475c-0.473,0-0.832,0.156-1.074,0.465C197.683,26.08,197.564,26.543,197.564,27.162z"/>
<path fill="#FFFFFF" d="M208.037,28.912h-0.041c-0.332,0.482-0.832,0.725-1.498,0.725c-0.621,0-1.109-0.211-1.455-0.641
	c-0.35-0.426-0.52-1.031-0.52-1.818s0.174-1.398,0.521-1.834c0.35-0.438,0.836-0.654,1.453-0.654c0.65,0,1.146,0.236,1.492,0.705
	h0.057l-0.031-0.34l-0.02-0.34v-1.943h0.729v6.781h-0.592L208.037,28.912z M206.591,29.033c0.492,0,0.852-0.133,1.072-0.404
	c0.223-0.268,0.332-0.701,0.332-1.301v-0.15c0-0.676-0.111-1.158-0.336-1.449c-0.227-0.289-0.584-0.432-1.076-0.432
	c-0.426,0-0.75,0.164-0.979,0.494c-0.221,0.328-0.334,0.795-0.334,1.395c0,0.611,0.113,1.07,0.334,1.381
	S206.158,29.033,206.591,29.033z"/>
<path fill="#FFFFFF" d="M212.273,29.637c-0.707,0-1.264-0.211-1.674-0.643c-0.406-0.432-0.611-1.025-0.611-1.791
	c0-0.77,0.191-1.383,0.572-1.832c0.377-0.455,0.887-0.682,1.525-0.682c0.596,0,1.07,0.197,1.422,0.592
	c0.346,0.393,0.52,0.914,0.52,1.557v0.459h-3.289c0.016,0.559,0.156,0.982,0.426,1.273c0.268,0.291,0.648,0.438,1.135,0.438
	c0.514,0,1.023-0.107,1.523-0.324v0.645c-0.254,0.111-0.494,0.189-0.725,0.238C212.871,29.613,212.595,29.637,212.273,29.637z
	 M212.076,25.297c-0.383,0-0.688,0.123-0.916,0.373c-0.229,0.252-0.365,0.598-0.402,1.037h2.496c0-0.455-0.104-0.805-0.305-1.045
	C212.744,25.418,212.455,25.297,212.076,25.297z"/>
<path fill="#FFFFFF" d="M218.429,26.902v2.65h-0.74v-6.369h1.75c0.777,0,1.355,0.15,1.729,0.447c0.373,0.301,0.561,0.75,0.561,1.352
	c0,0.842-0.428,1.41-1.283,1.707l1.73,2.863H221.3l-1.541-2.65H218.429z M218.429,26.268h1.016c0.521,0,0.906-0.105,1.15-0.313
	s0.367-0.518,0.367-0.934c0-0.424-0.123-0.725-0.375-0.912c-0.248-0.184-0.648-0.277-1.197-0.277h-0.961V26.268z"/>
<path fill="#FFFFFF" d="M225.111,29.637c-0.707,0-1.262-0.211-1.67-0.643s-0.611-1.025-0.611-1.791c0-0.77,0.189-1.383,0.566-1.832
	c0.383-0.455,0.889-0.682,1.525-0.682c0.604,0,1.076,0.197,1.422,0.592c0.352,0.393,0.525,0.914,0.525,1.557v0.459h-3.291
	c0.016,0.559,0.158,0.982,0.426,1.273s0.645,0.438,1.133,0.438c0.518,0,1.021-0.107,1.525-0.324v0.645
	c-0.254,0.111-0.496,0.189-0.725,0.238C225.708,29.613,225.433,29.637,225.111,29.637z M224.916,25.297
	c-0.383,0-0.691,0.123-0.916,0.373c-0.227,0.252-0.361,0.598-0.404,1.037h2.496c0-0.455-0.1-0.805-0.307-1.045
	C225.585,25.418,225.292,25.297,224.916,25.297z"/>
<path fill="#FFFFFF" d="M230.253,25.34h-1.219v4.213h-0.723V25.34h-0.854v-0.328l0.854-0.262v-0.264
	c0-1.176,0.514-1.764,1.539-1.764c0.254,0,0.551,0.055,0.889,0.154l-0.189,0.58c-0.277-0.092-0.514-0.135-0.715-0.135
	c-0.27,0-0.471,0.09-0.604,0.273c-0.133,0.182-0.197,0.471-0.197,0.873v0.307h1.219V25.34z"/>
<path fill="#FFFFFF" d="M233.14,29.637c-0.705,0-1.264-0.211-1.672-0.643c-0.406-0.432-0.611-1.025-0.611-1.791
	c0-0.77,0.191-1.383,0.568-1.832c0.381-0.455,0.887-0.682,1.529-0.682c0.596,0,1.066,0.197,1.418,0.592
	c0.348,0.393,0.523,0.914,0.523,1.557v0.459h-3.291c0.018,0.559,0.158,0.982,0.426,1.273c0.27,0.291,0.646,0.438,1.135,0.438
	c0.516,0,1.021-0.107,1.525-0.324v0.645c-0.256,0.111-0.496,0.189-0.727,0.238C233.738,29.613,233.464,29.637,233.14,29.637z
	 M232.943,25.297c-0.381,0-0.688,0.123-0.914,0.373c-0.229,0.252-0.365,0.598-0.404,1.037h2.496c0-0.455-0.104-0.805-0.303-1.045
	C233.613,25.418,233.324,25.297,232.943,25.297z"/>
<path fill="#FFFFFF" d="M238.306,24.689c0.209,0,0.4,0.018,0.568,0.053l-0.096,0.674c-0.201-0.045-0.375-0.068-0.523-0.068
	c-0.389,0-0.719,0.156-0.992,0.471c-0.275,0.313-0.414,0.705-0.414,1.172v2.563h-0.721v-4.777h0.598l0.082,0.887h0.033
	c0.18-0.313,0.393-0.553,0.643-0.721C237.734,24.775,238.009,24.689,238.306,24.689z"/>
<path fill="#FFFFFF" d="M241.789,29.637c-0.707,0-1.262-0.211-1.67-0.643s-0.611-1.025-0.611-1.791c0-0.77,0.186-1.383,0.564-1.832
	c0.381-0.455,0.891-0.682,1.527-0.682c0.598,0,1.072,0.197,1.422,0.592c0.35,0.393,0.523,0.914,0.523,1.557v0.459h-3.291
	c0.014,0.559,0.16,0.982,0.426,1.273s0.646,0.438,1.135,0.438c0.514,0,1.021-0.107,1.523-0.324v0.645
	c-0.252,0.111-0.494,0.189-0.723,0.238C242.386,29.613,242.109,29.637,241.789,29.637z M240.13,24.043
	c0.371-0.393,0.629-0.684,0.777-0.869s0.254-0.338,0.322-0.457h0.723c0.064,0.123,0.178,0.279,0.334,0.471
	c0.158,0.195,0.42,0.48,0.781,0.855v0.102h-0.52c-0.254-0.158-0.574-0.428-0.961-0.809c-0.395,0.391-0.713,0.658-0.953,0.809h-0.504
	V24.043z M241.589,25.297c-0.383,0-0.688,0.123-0.914,0.373c-0.229,0.252-0.361,0.598-0.404,1.037h2.496
	c0-0.455-0.1-0.805-0.305-1.045C242.261,25.418,241.968,25.297,241.589,25.297z"/>
<path fill="#FFFFFF" d="M248.042,29.553v-3.09c0-0.387-0.088-0.678-0.266-0.871c-0.176-0.193-0.453-0.287-0.832-0.287
	c-0.5,0-0.865,0.135-1.098,0.404s-0.348,0.717-0.348,1.338v2.506h-0.721v-4.777h0.586l0.117,0.654h0.035
	c0.148-0.234,0.355-0.418,0.625-0.545c0.266-0.129,0.563-0.195,0.889-0.195c0.578,0,1.01,0.141,1.301,0.418
	c0.289,0.275,0.436,0.719,0.436,1.332v3.113H248.042z"/>
<path fill="#FFFFFF" d="M252.162,29.637c-0.691,0-1.229-0.211-1.609-0.637c-0.375-0.424-0.564-1.027-0.564-1.807
	c0-0.797,0.191-1.414,0.576-1.85c0.387-0.438,0.936-0.654,1.643-0.654c0.23,0,0.459,0.025,0.689,0.074
	c0.23,0.051,0.41,0.109,0.541,0.174l-0.223,0.615c-0.158-0.063-0.334-0.117-0.523-0.16c-0.186-0.041-0.354-0.063-0.5-0.063
	c-0.969,0-1.455,0.617-1.455,1.855c0,0.586,0.117,1.037,0.357,1.352c0.234,0.313,0.586,0.471,1.049,0.471
	c0.398,0,0.807-0.088,1.227-0.258v0.641C253.048,29.555,252.644,29.637,252.162,29.637z"/>
<path fill="#FFFFFF" d="M254.437,23.482c0-0.162,0.041-0.285,0.123-0.363c0.084-0.076,0.184-0.113,0.305-0.113
	c0.113,0,0.217,0.037,0.301,0.115c0.084,0.076,0.125,0.199,0.125,0.361c0,0.164-0.041,0.285-0.125,0.367
	c-0.084,0.078-0.188,0.119-0.301,0.119c-0.121,0-0.221-0.041-0.305-0.119C254.478,23.768,254.437,23.646,254.437,23.482z
	 M255.222,29.553h-0.725v-4.777h0.725V29.553z"/>
<path fill="#FFFFFF" d="M259.689,29.553l-0.141-0.68h-0.033c-0.238,0.297-0.479,0.502-0.713,0.607
	c-0.236,0.104-0.533,0.156-0.889,0.156c-0.471,0-0.84-0.121-1.113-0.365c-0.266-0.242-0.402-0.59-0.402-1.039
	c0-0.965,0.773-1.469,2.313-1.514l0.813-0.029v-0.297c0-0.373-0.08-0.65-0.242-0.83c-0.16-0.176-0.42-0.266-0.775-0.266
	c-0.396,0-0.846,0.121-1.352,0.365l-0.221-0.555c0.238-0.127,0.492-0.227,0.775-0.297c0.279-0.076,0.561-0.111,0.842-0.111
	c0.57,0,0.99,0.125,1.266,0.379c0.275,0.252,0.414,0.66,0.414,1.215v3.26H259.689z M258.058,29.043c0.451,0,0.803-0.123,1.063-0.371
	c0.258-0.246,0.383-0.592,0.383-1.037v-0.432l-0.723,0.031c-0.574,0.021-0.99,0.109-1.244,0.268s-0.383,0.406-0.383,0.738
	c0,0.264,0.084,0.463,0.24,0.598C257.554,28.975,257.775,29.043,258.058,29.043z"/>
<path fill="#FFFFFF" d="M266.05,29.637c-0.703,0-1.26-0.211-1.668-0.643c-0.41-0.432-0.611-1.025-0.611-1.791
	c0-0.77,0.186-1.383,0.566-1.832c0.381-0.455,0.887-0.682,1.527-0.682c0.6,0,1.072,0.197,1.42,0.592
	c0.35,0.393,0.523,0.914,0.523,1.557v0.459h-3.289c0.016,0.559,0.156,0.982,0.424,1.273c0.27,0.291,0.645,0.438,1.135,0.438
	c0.516,0,1.021-0.107,1.525-0.324v0.645c-0.254,0.111-0.498,0.189-0.725,0.238C266.65,29.613,266.373,29.637,266.05,29.637z
	 M265.855,25.297c-0.385,0-0.689,0.123-0.914,0.373c-0.229,0.252-0.363,0.598-0.406,1.037h2.496c0-0.455-0.1-0.805-0.305-1.045
	C266.525,25.418,266.234,25.297,265.855,25.297z"/>
<path fill="#FFFFFF" d="M275.126,29.553v-3.107c0-0.381-0.08-0.664-0.244-0.855c-0.162-0.191-0.416-0.285-0.758-0.285
	c-0.449,0-0.785,0.129-0.998,0.391c-0.213,0.254-0.324,0.652-0.324,1.189v2.668h-0.723v-3.107c0-0.381-0.08-0.664-0.244-0.855
	c-0.162-0.191-0.416-0.285-0.762-0.285c-0.453,0-0.783,0.135-0.992,0.408c-0.213,0.271-0.318,0.715-0.318,1.334v2.506h-0.723v-4.777
	h0.586l0.117,0.654h0.037c0.137-0.23,0.328-0.412,0.574-0.543c0.252-0.131,0.527-0.197,0.838-0.197c0.746,0,1.232,0.271,1.463,0.813
	h0.035c0.143-0.252,0.35-0.447,0.619-0.596c0.27-0.143,0.578-0.217,0.922-0.217c0.543,0,0.945,0.141,1.215,0.418
	c0.268,0.275,0.4,0.719,0.4,1.332v3.113H275.126z"/>
<path fill="#FFFFFF" d="M280.505,29.553h-0.74v-6.369h3.551v0.656h-2.811v2.332h2.639v0.658h-2.639V29.553z"/>
<path fill="#FFFFFF" d="M288.382,27.162c0,0.775-0.197,1.383-0.59,1.82c-0.391,0.438-0.932,0.654-1.623,0.654
	c-0.428,0-0.807-0.098-1.137-0.299c-0.332-0.197-0.588-0.488-0.768-0.861c-0.18-0.377-0.268-0.813-0.268-1.314
	c0-0.779,0.193-1.385,0.582-1.818c0.389-0.438,0.932-0.654,1.619-0.654c0.668,0,1.199,0.223,1.594,0.666
	C288.185,25.803,288.382,26.402,288.382,27.162z M284.746,27.162c0,0.607,0.123,1.074,0.367,1.393
	c0.242,0.318,0.6,0.479,1.074,0.479s0.832-0.16,1.076-0.479c0.246-0.316,0.371-0.783,0.371-1.393s-0.125-1.068-0.371-1.383
	c-0.244-0.316-0.605-0.475-1.082-0.475c-0.475,0-0.834,0.156-1.072,0.465C284.867,26.08,284.746,26.543,284.746,27.162z"/>
<path fill="#FFFFFF" d="M291.828,24.689c0.213,0,0.402,0.018,0.572,0.053l-0.102,0.674c-0.195-0.045-0.371-0.068-0.52-0.068
	c-0.389,0-0.719,0.156-0.992,0.471c-0.275,0.313-0.412,0.705-0.412,1.172v2.563h-0.723v-4.777h0.596l0.082,0.887h0.037
	c0.176-0.313,0.389-0.553,0.637-0.721C291.255,24.775,291.533,24.689,291.828,24.689z"/>
<path fill="#FFFFFF" d="M299.376,29.553v-3.107c0-0.381-0.082-0.664-0.242-0.855c-0.166-0.191-0.416-0.285-0.758-0.285
	c-0.451,0-0.785,0.129-0.998,0.391c-0.215,0.254-0.32,0.652-0.32,1.189v2.668h-0.725v-3.107c0-0.381-0.082-0.664-0.244-0.855
	c-0.16-0.191-0.418-0.285-0.764-0.285c-0.451,0-0.785,0.135-0.994,0.408c-0.213,0.271-0.318,0.715-0.318,1.334v2.506h-0.723v-4.777
	h0.586l0.121,0.654h0.035c0.135-0.23,0.328-0.412,0.578-0.543c0.246-0.131,0.527-0.197,0.83-0.197c0.748,0,1.236,0.271,1.467,0.813
	h0.033c0.143-0.252,0.352-0.447,0.619-0.596c0.27-0.143,0.578-0.217,0.924-0.217c0.541,0,0.945,0.141,1.215,0.418
	c0.27,0.275,0.404,0.719,0.404,1.332v3.113H299.376z"/>
<path fill="#FFFFFF" d="M304.525,29.553l-0.143-0.68h-0.033c-0.236,0.297-0.477,0.502-0.713,0.607
	c-0.236,0.104-0.535,0.156-0.889,0.156c-0.473,0-0.842-0.121-1.109-0.365c-0.27-0.242-0.404-0.59-0.404-1.039
	c0-0.965,0.771-1.469,2.311-1.514l0.814-0.029v-0.297c0-0.373-0.082-0.65-0.244-0.83c-0.16-0.176-0.418-0.266-0.773-0.266
	c-0.396,0-0.846,0.121-1.35,0.365l-0.223-0.555c0.236-0.127,0.492-0.227,0.771-0.297c0.283-0.076,0.561-0.111,0.846-0.111
	c0.568,0,0.99,0.125,1.268,0.379c0.271,0.252,0.41,0.66,0.41,1.215v3.26H304.525z M302.892,29.043c0.449,0,0.805-0.123,1.063-0.371
	c0.256-0.246,0.383-0.592,0.383-1.037v-0.432l-0.721,0.031c-0.576,0.021-0.992,0.109-1.244,0.268
	c-0.254,0.158-0.381,0.406-0.381,0.738c0,0.264,0.078,0.463,0.236,0.598C302.39,28.975,302.609,29.043,302.892,29.043z"/>
<path fill="#FFFFFF" d="M308.46,29.637c-0.691,0-1.225-0.211-1.605-0.637c-0.379-0.424-0.566-1.027-0.566-1.807
	c0-0.797,0.189-1.414,0.578-1.85c0.383-0.438,0.932-0.654,1.641-0.654c0.229,0,0.459,0.025,0.689,0.074
	c0.229,0.051,0.408,0.109,0.541,0.174l-0.221,0.615c-0.16-0.063-0.338-0.117-0.525-0.16c-0.188-0.041-0.355-0.063-0.502-0.063
	c-0.969,0-1.455,0.617-1.455,1.855c0,0.586,0.117,1.037,0.357,1.352c0.234,0.313,0.586,0.471,1.053,0.471
	c0.395,0,0.807-0.088,1.223-0.258v0.641C309.347,29.555,308.945,29.637,308.46,29.637z M309.105,30.813
	c0,0.281-0.111,0.498-0.332,0.648c-0.223,0.158-0.551,0.234-0.988,0.234c-0.146,0-0.287-0.012-0.418-0.039v-0.461
	c0.131,0.023,0.283,0.033,0.455,0.033c0.229,0,0.402-0.029,0.52-0.084c0.119-0.061,0.176-0.166,0.176-0.324
	c0-0.125-0.057-0.227-0.172-0.303c-0.115-0.08-0.332-0.141-0.646-0.189l0.383-0.775h0.48l-0.238,0.502
	C308.843,30.166,309.105,30.418,309.105,30.813z"/>
<path fill="#FFFFFF" d="M313.736,29.553l-0.143-0.68h-0.035c-0.236,0.297-0.477,0.502-0.713,0.607
	c-0.236,0.104-0.533,0.156-0.885,0.156c-0.475,0-0.846-0.121-1.111-0.365c-0.271-0.242-0.406-0.59-0.406-1.039
	c0-0.965,0.771-1.469,2.313-1.514l0.813-0.029v-0.297c0-0.373-0.08-0.65-0.244-0.83c-0.16-0.176-0.418-0.266-0.773-0.266
	c-0.398,0-0.846,0.121-1.35,0.365l-0.221-0.555c0.234-0.127,0.492-0.227,0.771-0.297c0.281-0.076,0.561-0.111,0.844-0.111
	c0.568,0,0.99,0.125,1.266,0.379c0.275,0.252,0.412,0.66,0.412,1.215v3.26H313.736z M313.175,24.137
	c-0.125,0-0.246-0.027-0.365-0.08c-0.121-0.055-0.238-0.113-0.352-0.18c-0.115-0.064-0.225-0.125-0.332-0.178
	c-0.105-0.053-0.209-0.08-0.307-0.08c-0.145,0-0.256,0.041-0.328,0.131c-0.076,0.088-0.131,0.219-0.174,0.395h-0.426
	c0.039-0.35,0.139-0.625,0.309-0.824c0.164-0.199,0.379-0.299,0.646-0.299c0.131,0,0.26,0.027,0.387,0.08
	c0.123,0.053,0.244,0.113,0.355,0.18c0.115,0.064,0.223,0.125,0.328,0.178c0.104,0.055,0.205,0.084,0.299,0.084
	c0.143,0,0.246-0.047,0.314-0.131c0.068-0.086,0.127-0.221,0.17-0.4h0.434c-0.039,0.352-0.141,0.629-0.303,0.826
	C313.666,24.037,313.447,24.137,313.175,24.137z M312.101,29.043c0.451,0,0.805-0.123,1.063-0.371
	c0.258-0.246,0.385-0.592,0.385-1.037v-0.432l-0.723,0.031c-0.576,0.021-0.988,0.109-1.246,0.268
	c-0.25,0.158-0.379,0.406-0.379,0.738c0,0.264,0.08,0.463,0.236,0.598C311.597,28.975,311.82,29.043,312.101,29.043z"/>
<path fill="#FFFFFF" d="M319.882,27.162c0,0.775-0.197,1.383-0.586,1.82c-0.395,0.438-0.936,0.654-1.627,0.654
	c-0.426,0-0.807-0.098-1.137-0.299c-0.332-0.197-0.586-0.488-0.77-0.861c-0.178-0.377-0.27-0.813-0.27-1.314
	c0-0.779,0.195-1.385,0.586-1.818c0.387-0.438,0.93-0.654,1.621-0.654c0.666,0,1.199,0.223,1.59,0.666
	C319.683,25.803,319.882,26.402,319.882,27.162z M316.244,27.162c0,0.607,0.123,1.074,0.367,1.393s0.602,0.479,1.076,0.479
	s0.832-0.16,1.078-0.479c0.248-0.316,0.367-0.783,0.367-1.393s-0.119-1.068-0.367-1.383c-0.246-0.316-0.607-0.475-1.088-0.475
	c-0.475,0-0.828,0.156-1.07,0.465C316.363,26.08,316.244,26.543,316.244,27.162z"/>
<path fill="#FFFFFF" d="M176.195,40.344c-0.711,0-1.266-0.211-1.674-0.643c-0.41-0.432-0.611-1.029-0.611-1.791
	c0-0.77,0.188-1.383,0.564-1.834c0.383-0.455,0.889-0.68,1.531-0.68c0.598,0,1.072,0.193,1.422,0.59
	c0.346,0.395,0.52,0.914,0.52,1.559V38h-3.287c0.014,0.563,0.154,0.988,0.426,1.277c0.264,0.291,0.641,0.436,1.133,0.436
	c0.516,0,1.023-0.107,1.525-0.322v0.645c-0.256,0.109-0.496,0.189-0.727,0.238C176.791,40.32,176.515,40.344,176.195,40.344z
	 M175.996,36.004c-0.385,0-0.689,0.123-0.918,0.371c-0.227,0.252-0.361,0.596-0.402,1.039h2.5c0-0.455-0.105-0.807-0.307-1.047
	C176.664,36.125,176.376,36.004,175.996,36.004z"/>
<path fill="#FFFFFF" d="M183.515,40.344c-0.707,0-1.262-0.211-1.672-0.643c-0.406-0.432-0.607-1.029-0.607-1.791
	c0-0.77,0.186-1.383,0.564-1.834c0.381-0.455,0.887-0.68,1.527-0.68c0.598,0,1.072,0.193,1.424,0.59
	c0.346,0.395,0.52,0.914,0.52,1.559V38h-3.289c0.014,0.563,0.156,0.988,0.426,1.277c0.266,0.291,0.643,0.436,1.135,0.436
	c0.516,0,1.023-0.107,1.525-0.322v0.645c-0.256,0.109-0.496,0.189-0.729,0.238C184.115,40.32,183.837,40.344,183.515,40.344z
	 M183.32,36.004c-0.385,0-0.689,0.123-0.916,0.371c-0.229,0.252-0.363,0.596-0.404,1.039h2.498c0-0.455-0.104-0.807-0.305-1.047
	C183.988,36.125,183.697,36.004,183.32,36.004z"/>
<path fill="#FFFFFF" d="M192.593,40.258V37.15c0-0.381-0.084-0.664-0.244-0.855c-0.162-0.189-0.418-0.285-0.76-0.285
	c-0.451,0-0.783,0.129-0.998,0.389c-0.217,0.258-0.322,0.654-0.322,1.195v2.664h-0.721V37.15c0-0.381-0.082-0.664-0.244-0.855
	c-0.164-0.189-0.42-0.285-0.766-0.285c-0.451,0-0.785,0.135-0.994,0.406c-0.209,0.273-0.316,0.717-0.316,1.338v2.504h-0.725v-4.775
	h0.59l0.119,0.654h0.035c0.133-0.23,0.328-0.412,0.576-0.547c0.246-0.129,0.527-0.193,0.832-0.193c0.75,0,1.236,0.27,1.465,0.809
	h0.033c0.146-0.25,0.35-0.445,0.621-0.592c0.268-0.145,0.576-0.217,0.924-0.217c0.539,0,0.945,0.137,1.213,0.416
	c0.27,0.277,0.404,0.721,0.404,1.332v3.113H192.593z"/>
<path fill="#FFFFFF" d="M200.783,40.258h-3.551v-6.369h3.551v0.658h-2.811v2.051h2.643v0.654h-2.643v2.344h2.811V40.258z"/>
<path fill="#FFFFFF" d="M205.335,39.617h-0.039c-0.334,0.484-0.832,0.727-1.5,0.727c-0.623,0-1.109-0.211-1.455-0.641
	c-0.35-0.426-0.518-1.031-0.518-1.82c0-0.787,0.172-1.398,0.518-1.834c0.352-0.436,0.836-0.652,1.455-0.652
	c0.65,0,1.146,0.236,1.492,0.703h0.055l-0.029-0.342l-0.018-0.336v-1.943h0.721v6.779h-0.586L205.335,39.617z M203.89,39.738
	c0.492,0,0.852-0.133,1.072-0.402c0.223-0.268,0.334-0.701,0.334-1.301v-0.152c0-0.678-0.111-1.158-0.336-1.449
	c-0.227-0.289-0.586-0.43-1.078-0.43c-0.424,0-0.75,0.162-0.979,0.492c-0.221,0.328-0.334,0.795-0.334,1.395
	c0,0.611,0.113,1.072,0.334,1.381C203.126,39.584,203.458,39.738,203.89,39.738z"/>
<path fill="#FFFFFF" d="M208.23,35.482v3.1c0,0.387,0.092,0.678,0.271,0.871c0.178,0.189,0.455,0.285,0.832,0.285
	c0.498,0,0.861-0.135,1.096-0.408c0.229-0.273,0.342-0.719,0.342-1.338v-2.51h0.727v4.775h-0.6l-0.104-0.641h-0.037
	c-0.148,0.234-0.355,0.414-0.617,0.541c-0.262,0.125-0.563,0.186-0.898,0.186c-0.58,0-1.018-0.137-1.307-0.414
	c-0.289-0.273-0.434-0.715-0.434-1.324v-3.123H208.23z"/>
<path fill="#FFFFFF" d="M214.939,40.344c-0.691,0-1.227-0.211-1.607-0.635c-0.379-0.428-0.564-1.029-0.564-1.811
	c0-0.795,0.188-1.414,0.576-1.85c0.385-0.436,0.934-0.652,1.643-0.652c0.23,0,0.457,0.025,0.688,0.074
	c0.23,0.051,0.41,0.105,0.541,0.176l-0.221,0.611c-0.16-0.063-0.336-0.115-0.525-0.158c-0.188-0.041-0.355-0.063-0.5-0.063
	c-0.969,0-1.455,0.617-1.455,1.854c0,0.588,0.117,1.039,0.357,1.352c0.234,0.313,0.586,0.471,1.049,0.471
	c0.4,0,0.807-0.084,1.227-0.256v0.639C215.824,40.262,215.421,40.344,214.939,40.344z"/>
<path fill="#FFFFFF" d="M220.216,40.258l-0.143-0.68h-0.035c-0.24,0.297-0.477,0.5-0.713,0.607
	c-0.238,0.105-0.533,0.158-0.889,0.158c-0.471,0-0.842-0.123-1.113-0.365c-0.27-0.242-0.402-0.59-0.402-1.041
	c0-0.963,0.773-1.469,2.314-1.516l0.809-0.027V37.1c0-0.375-0.082-0.652-0.24-0.832c-0.164-0.178-0.422-0.264-0.771-0.264
	c-0.4,0-0.852,0.121-1.352,0.365l-0.221-0.555c0.234-0.125,0.492-0.227,0.771-0.301c0.281-0.072,0.561-0.107,0.84-0.107
	c0.572,0,0.992,0.123,1.268,0.379c0.273,0.252,0.412,0.656,0.412,1.215v3.258H220.216z M218.583,39.746
	c0.449,0,0.803-0.123,1.057-0.369c0.262-0.246,0.387-0.592,0.387-1.037v-0.43l-0.721,0.029c-0.576,0.02-0.99,0.111-1.246,0.268
	c-0.256,0.158-0.379,0.406-0.379,0.738c0,0.264,0.076,0.461,0.234,0.598C218.076,39.678,218.298,39.746,218.583,39.746z"/>
<path fill="#FFFFFF" d="M224.15,40.344c-0.693,0-1.227-0.211-1.604-0.635c-0.381-0.428-0.572-1.029-0.572-1.811
	c0-0.795,0.195-1.414,0.578-1.85c0.385-0.436,0.932-0.652,1.646-0.652c0.229,0,0.457,0.025,0.689,0.074
	c0.229,0.051,0.408,0.105,0.537,0.176l-0.221,0.611c-0.162-0.063-0.336-0.115-0.523-0.158c-0.188-0.041-0.355-0.063-0.5-0.063
	c-0.971,0-1.457,0.617-1.457,1.854c0,0.588,0.119,1.039,0.355,1.352c0.238,0.313,0.588,0.471,1.053,0.471
	c0.4,0,0.805-0.084,1.225-0.256v0.639C225.039,40.262,224.636,40.344,224.15,40.344z M224.792,41.518
	c0,0.281-0.111,0.498-0.334,0.652c-0.221,0.152-0.549,0.232-0.984,0.232c-0.148,0-0.287-0.014-0.416-0.041V41.9
	c0.129,0.023,0.279,0.035,0.451,0.035c0.229,0,0.4-0.031,0.518-0.088c0.121-0.057,0.18-0.166,0.18-0.322
	c0-0.127-0.057-0.225-0.172-0.303c-0.113-0.076-0.33-0.139-0.648-0.189l0.387-0.775h0.479l-0.242,0.5
	C224.535,40.871,224.792,41.125,224.792,41.518z"/>
<path fill="#FFFFFF" d="M229.427,40.258l-0.146-0.68h-0.033c-0.238,0.297-0.477,0.5-0.713,0.607
	c-0.236,0.105-0.531,0.158-0.889,0.158c-0.471,0-0.844-0.123-1.111-0.365c-0.27-0.242-0.404-0.59-0.404-1.041
	c0-0.963,0.773-1.469,2.316-1.516l0.809-0.027V37.1c0-0.375-0.082-0.652-0.24-0.832c-0.166-0.178-0.42-0.264-0.773-0.264
	c-0.398,0-0.85,0.121-1.352,0.365l-0.221-0.555c0.234-0.125,0.492-0.227,0.773-0.301c0.277-0.072,0.561-0.107,0.84-0.107
	c0.572,0,0.992,0.123,1.268,0.379c0.271,0.252,0.408,0.656,0.408,1.215v3.258H229.427z M228.861,34.844
	c-0.123,0-0.246-0.027-0.363-0.082c-0.119-0.053-0.238-0.113-0.352-0.178s-0.225-0.125-0.332-0.178
	c-0.107-0.057-0.205-0.082-0.305-0.082c-0.146,0-0.256,0.047-0.332,0.131c-0.072,0.086-0.131,0.223-0.168,0.395h-0.428
	c0.035-0.352,0.141-0.623,0.305-0.824c0.168-0.197,0.385-0.297,0.648-0.297c0.133,0,0.264,0.025,0.387,0.08
	c0.125,0.055,0.242,0.111,0.359,0.178c0.109,0.066,0.221,0.125,0.326,0.178c0.104,0.055,0.203,0.08,0.295,0.08
	c0.143,0,0.25-0.041,0.318-0.127c0.07-0.086,0.127-0.217,0.168-0.396h0.434c-0.037,0.348-0.137,0.625-0.303,0.822
	C229.355,34.744,229.138,34.844,228.861,34.844z M227.792,39.746c0.449,0,0.803-0.123,1.057-0.369
	c0.26-0.246,0.389-0.592,0.389-1.037v-0.43l-0.723,0.029c-0.576,0.02-0.988,0.111-1.244,0.268c-0.256,0.158-0.381,0.406-0.381,0.738
	c0,0.264,0.078,0.461,0.238,0.598C227.285,39.678,227.505,39.746,227.792,39.746z"/>
<path fill="#FFFFFF" d="M235.574,37.865c0,0.779-0.197,1.387-0.59,1.824c-0.393,0.436-0.934,0.654-1.625,0.654
	c-0.424,0-0.807-0.1-1.137-0.299s-0.586-0.49-0.768-0.863c-0.18-0.375-0.27-0.811-0.27-1.316c0-0.777,0.191-1.383,0.584-1.818
	c0.389-0.434,0.93-0.65,1.621-0.65c0.668,0,1.197,0.219,1.592,0.666C235.373,36.506,235.574,37.107,235.574,37.865z M231.933,37.865
	c0,0.611,0.125,1.074,0.367,1.395c0.244,0.32,0.604,0.479,1.076,0.479s0.832-0.158,1.078-0.477c0.248-0.316,0.367-0.783,0.367-1.396
	c0-0.607-0.119-1.066-0.367-1.381c-0.246-0.314-0.607-0.475-1.086-0.475c-0.475,0-0.83,0.154-1.072,0.467
	C232.052,36.787,231.933,37.25,231.933,37.865z"/>
<path fill="#FFFFFF" d="M242.091,40.258l-0.141-0.68h-0.037c-0.238,0.297-0.477,0.5-0.711,0.607
	c-0.24,0.105-0.533,0.158-0.889,0.158c-0.471,0-0.844-0.123-1.113-0.365c-0.268-0.242-0.402-0.59-0.402-1.041
	c0-0.963,0.773-1.469,2.313-1.516l0.811-0.027V37.1c0-0.375-0.082-0.652-0.24-0.832c-0.164-0.178-0.42-0.264-0.773-0.264
	c-0.396,0-0.85,0.121-1.352,0.365l-0.221-0.555c0.236-0.125,0.494-0.227,0.771-0.301c0.283-0.072,0.563-0.107,0.842-0.107
	c0.572,0,0.992,0.123,1.266,0.379c0.277,0.252,0.414,0.656,0.414,1.215v3.258H242.091z M240.458,39.746
	c0.449,0,0.805-0.123,1.059-0.369c0.26-0.246,0.389-0.592,0.389-1.037v-0.43l-0.725,0.029c-0.574,0.02-0.988,0.111-1.242,0.268
	c-0.256,0.158-0.383,0.406-0.383,0.738c0,0.264,0.08,0.461,0.24,0.598C239.953,39.678,240.173,39.746,240.458,39.746z"/>
<path fill="#FFFFFF" d="M251.63,37.012c0,1.053-0.285,1.855-0.857,2.412c-0.568,0.557-1.393,0.834-2.463,0.834h-1.766v-6.369h1.953
	c0.988,0,1.758,0.275,2.311,0.822C251.355,35.26,251.63,36.029,251.63,37.012z M250.845,37.039c0-0.832-0.209-1.457-0.625-1.879
	s-1.037-0.631-1.857-0.631h-1.074v5.088h0.898c0.883,0,1.545-0.217,1.992-0.65C250.626,38.531,250.845,37.889,250.845,37.039z"/>
<path fill="#FFFFFF" d="M252.88,34.188c0-0.164,0.039-0.285,0.119-0.359c0.08-0.08,0.184-0.119,0.307-0.119
	c0.115,0,0.215,0.039,0.299,0.119c0.084,0.076,0.127,0.197,0.127,0.359s-0.043,0.285-0.127,0.365
	c-0.084,0.082-0.184,0.121-0.299,0.121c-0.123,0-0.227-0.039-0.307-0.121C252.919,34.473,252.88,34.35,252.88,34.188z
	 M253.66,40.258h-0.721v-4.775h0.721V40.258z"/>
<path fill="#FFFFFF" d="M258.277,38.955c0,0.445-0.166,0.789-0.498,1.027c-0.33,0.242-0.793,0.361-1.395,0.361
	c-0.633,0-1.125-0.1-1.479-0.299v-0.672c0.229,0.117,0.473,0.207,0.736,0.273c0.262,0.066,0.518,0.1,0.762,0.1
	c0.375,0,0.67-0.059,0.871-0.18s0.305-0.303,0.305-0.551c0-0.186-0.08-0.344-0.242-0.477c-0.16-0.133-0.475-0.289-0.943-0.467
	c-0.443-0.166-0.762-0.311-0.947-0.436c-0.188-0.123-0.326-0.264-0.418-0.418c-0.094-0.158-0.137-0.346-0.137-0.564
	c0-0.389,0.16-0.695,0.475-0.922c0.314-0.225,0.75-0.336,1.301-0.336c0.516,0,1.018,0.104,1.51,0.314l-0.258,0.588
	c-0.477-0.199-0.912-0.295-1.303-0.295c-0.346,0-0.604,0.051-0.775,0.16c-0.174,0.107-0.26,0.252-0.26,0.441
	c0,0.131,0.031,0.24,0.098,0.328c0.063,0.09,0.17,0.178,0.314,0.258c0.145,0.078,0.426,0.199,0.838,0.354
	c0.564,0.205,0.947,0.414,1.146,0.621C258.177,38.377,258.277,38.639,258.277,38.955z"/>
<path fill="#FFFFFF" d="M260.994,39.746c0.129,0,0.254-0.01,0.369-0.027c0.121-0.018,0.217-0.035,0.285-0.059v0.555
	c-0.076,0.037-0.195,0.068-0.346,0.094c-0.154,0.023-0.287,0.035-0.41,0.035c-0.926,0-1.387-0.484-1.387-1.459v-2.838h-0.686v-0.35
	l0.686-0.301l0.305-1.02h0.42v1.105h1.383v0.564h-1.383v2.809c0,0.287,0.068,0.508,0.203,0.662
	C260.57,39.672,260.753,39.746,260.994,39.746z"/>
<path fill="#FFFFFF" d="M265.539,40.258l-0.143-0.68h-0.037c-0.238,0.297-0.477,0.5-0.713,0.607
	c-0.236,0.105-0.531,0.158-0.887,0.158c-0.471,0-0.842-0.123-1.111-0.365c-0.271-0.242-0.406-0.59-0.406-1.041
	c0-0.963,0.775-1.469,2.314-1.516l0.811-0.027V37.1c0-0.375-0.08-0.652-0.24-0.832c-0.162-0.178-0.42-0.264-0.771-0.264
	c-0.4,0-0.852,0.121-1.352,0.365l-0.221-0.555c0.234-0.125,0.492-0.227,0.773-0.301c0.279-0.072,0.559-0.107,0.84-0.107
	c0.57,0,0.992,0.123,1.268,0.379c0.273,0.252,0.41,0.656,0.41,1.215v3.258H265.539z M262.83,34.752
	c0.367-0.395,0.625-0.688,0.773-0.871c0.148-0.186,0.258-0.34,0.326-0.459h0.721c0.063,0.121,0.174,0.283,0.334,0.473
	c0.156,0.193,0.416,0.48,0.781,0.857v0.098h-0.518c-0.258-0.158-0.578-0.43-0.965-0.809c-0.395,0.389-0.711,0.66-0.951,0.809h-0.502
	V34.752z M263.904,39.746c0.451,0,0.805-0.123,1.061-0.369c0.26-0.246,0.385-0.592,0.385-1.037v-0.43l-0.723,0.029
	c-0.574,0.02-0.986,0.111-1.244,0.268c-0.254,0.158-0.379,0.406-0.379,0.738c0,0.264,0.078,0.461,0.236,0.598
	C263.398,39.678,263.619,39.746,263.904,39.746z"/>
<path fill="#FFFFFF" d="M270.83,40.258V37.17c0-0.391-0.088-0.68-0.266-0.871c-0.174-0.193-0.455-0.289-0.83-0.289
	c-0.5,0-0.865,0.135-1.1,0.404c-0.234,0.271-0.346,0.717-0.346,1.34v2.504h-0.725v-4.775h0.59l0.117,0.654h0.031
	c0.15-0.236,0.357-0.418,0.627-0.547c0.266-0.129,0.563-0.193,0.891-0.193c0.576,0,1.01,0.137,1.301,0.416
	c0.289,0.277,0.434,0.721,0.434,1.332v3.113H270.83z"/>
<path fill="#FFFFFF" d="M274.949,40.344c-0.691,0-1.227-0.211-1.609-0.635c-0.377-0.428-0.563-1.029-0.563-1.811
	c0-0.795,0.189-1.414,0.576-1.85c0.383-0.436,0.934-0.652,1.641-0.652c0.232,0,0.461,0.025,0.689,0.074
	c0.232,0.051,0.41,0.105,0.543,0.176l-0.223,0.611c-0.16-0.063-0.334-0.115-0.523-0.158c-0.188-0.041-0.355-0.063-0.502-0.063
	c-0.971,0-1.453,0.617-1.453,1.854c0,0.588,0.115,1.039,0.354,1.352c0.236,0.313,0.586,0.471,1.053,0.471
	c0.396,0,0.807-0.084,1.225-0.256v0.639C275.835,40.262,275.433,40.344,274.949,40.344z"/>
<path fill="#FFFFFF" d="M277.228,34.188c0-0.164,0.039-0.285,0.119-0.359c0.082-0.08,0.184-0.119,0.307-0.119
	c0.113,0,0.215,0.039,0.299,0.119c0.086,0.076,0.127,0.197,0.127,0.359s-0.041,0.285-0.127,0.365
	c-0.084,0.082-0.186,0.121-0.299,0.121c-0.123,0-0.225-0.039-0.307-0.121C277.267,34.473,277.228,34.35,277.228,34.188z
	 M278.011,40.258h-0.725v-4.775h0.725V40.258z"/>
<path fill="#FFFFFF" d="M282.478,40.258l-0.143-0.68h-0.033c-0.238,0.297-0.479,0.5-0.715,0.607
	c-0.234,0.105-0.531,0.158-0.885,0.158c-0.475,0-0.844-0.123-1.113-0.365s-0.404-0.59-0.404-1.041c0-0.963,0.77-1.469,2.313-1.516
	l0.813-0.027V37.1c0-0.375-0.08-0.652-0.242-0.832c-0.16-0.178-0.418-0.264-0.775-0.264c-0.396,0-0.846,0.121-1.35,0.365
	l-0.223-0.555c0.234-0.125,0.494-0.227,0.775-0.301c0.277-0.072,0.561-0.107,0.842-0.107c0.57,0,0.992,0.123,1.268,0.379
	c0.273,0.252,0.414,0.656,0.414,1.215v3.258H282.478z M280.843,39.746c0.453,0,0.807-0.123,1.064-0.369s0.383-0.592,0.383-1.037
	v-0.43l-0.723,0.029c-0.574,0.02-0.99,0.111-1.244,0.268c-0.252,0.158-0.381,0.406-0.381,0.738c0,0.264,0.08,0.461,0.238,0.598
	C280.341,39.678,280.564,39.746,280.843,39.746z"/>
<path fill="#FFFFFF" d="M165.595,39.9c0,0.131-0.107,0.24-0.238,0.24c-0.133,0-0.238-0.109-0.238-0.24V21.404
	c0-0.133,0.105-0.238,0.238-0.238c0.131,0,0.238,0.105,0.238,0.238V39.9z"/>
</svg>
